<svg xmlns="http://www.w3.org/2000/svg" width="1024" height="500" viewBox="0 0 1024 500"><defs><linearGradient xmlns="http://www.w3.org/2000/svg" id="fg2" gradientUnits="userSpaceOnUse" x1="34" y1="49" x2="68" y2="80"><stop offset="0" stop-color="#FF86A9" stop-opacity="1.0" /><stop offset="0.55" stop-color="#E33F79" stop-opacity="1.0" /><stop offset="1" stop-color="#9B1E54" stop-opacity="1.0" /></linearGradient><linearGradient xmlns="http://www.w3.org/2000/svg" id="fg4" gradientUnits="userSpaceOnUse" x1="58" y1="22" x2="79" y2="67"><stop offset="0" stop-color="#FFD7B8" stop-opacity="1.0" /><stop offset="0.48" stop-color="#F08DAE" stop-opacity="1.0" /><stop offset="1" stop-color="#BD3C77" stop-opacity="1.0" /></linearGradient>

<linearGradient id="light-bg" x1="0" y1="0" x2="1" y2="1"><stop stop-color="#FFF9F3"/><stop offset="1" stop-color="#F7DFE8"/></linearGradient>
<linearGradient id="light-disk" x1="0" y1="0" x2="1" y2="1"><stop stop-color="#F2D1DF"/><stop offset="1" stop-color="#EAB8D0"/></linearGradient>
</defs><rect width="1024" height="500" fill="url(#light-bg)"/><circle cx="875" cy="250" r="318" fill="url(#light-disk)"/><circle cx="875" cy="250" r="268" fill="none" stroke="#FFF8F2" stroke-width="1.5" opacity="0.58"/><circle cx="875" cy="250" r="239" fill="none" stroke="#FFF8F2" stroke-width="1.5" opacity="0.58"/><circle cx="875" cy="250" r="211" fill="none" stroke="#FFF8F2" stroke-width="1.5" opacity="0.58"/><path d="M65 116H101" stroke="#BD3C77" stroke-width="4" stroke-linecap="round"/><text x="65" y="212" font-family="Arial, sans-serif" font-size="68" font-weight="700" text-anchor="start" letter-spacing="-2" fill="#311136">ASMRPlayer</text><text x="68" y="270" font-family="Hiragino Sans, Hiragino Kaku Gothic ProN, sans-serif" font-size="28" font-weight="400" text-anchor="start" letter-spacing="-0.5" fill="#75294E">あなたの音を、いつもそばに。</text><text x="70" y="342" font-family="Hiragino Sans, Hiragino Kaku Gothic ProN, sans-serif" font-size="21" font-weight="400" text-anchor="start" letter-spacing="0" fill="#87566F">フォルダから選んで、すぐ再生。</text><g transform="translate(514.42 9.38) scale(4.45)"><path xmlns="http://www.w3.org/2000/svg" d="M78,43C85,49 85,59 78,65" fill="#000000" fill-opacity="0.0" stroke="#F6C6A6" stroke-opacity="0.6" stroke-width="3.6" stroke-linecap="round" /><path xmlns="http://www.w3.org/2000/svg" d="M84,35C96,46 96,64 84,75" fill="#000000" fill-opacity="0.0" stroke="#F6C6A6" stroke-opacity="0.3333333333333333" stroke-width="2.6" stroke-linecap="round" /><path xmlns="http://www.w3.org/2000/svg" d="M38,76C43,81 51,83 58,80C66,77 72,69 71,59C70,53 65,48 59,48C56,48 53,50 51,53C49,50 46,48 42,48C36,48 31,53 31,60C31,67 34,72 38,76Z" fill="url(#fg2)" /><path xmlns="http://www.w3.org/2000/svg" d="M37,73C43,79 51,81 58,78C64,75 69,68 69,61C66,72 53,78 43,73C37,70 33,65 32,59C31,64 33,69 37,73Z" fill="#100016" fill-opacity="0.2" /><path xmlns="http://www.w3.org/2000/svg" d="M60,25C60,22 63,21 65,22L74,25C76,26 77,27 77,30V56C77,63 72,68 64,68C58,68 54,65 54,60C54,55 59,51 65,51C68,51 70,52 72,53V36L65,34V59H60V25Z" fill="url(#fg4)" /><path xmlns="http://www.w3.org/2000/svg" d="M47,58L47,70L58,64Z" fill="#1B061F" fill-opacity="1.0" /><path xmlns="http://www.w3.org/2000/svg" d="M39,52C43,49 48,51 50,56C45,53 40,54 36,59C36,56 37,54 39,52Z" fill="#FFFFFF" fill-opacity="0.26666666666666666" /><path xmlns="http://www.w3.org/2000/svg" d="M64,25C68,26 72,27 75,29C72,29 68,29 64,28V25Z" fill="#FFFFFF" fill-opacity="0.3333333333333333" /></g></svg>